
<svg xmlns="http://www.w3.org/2000/svg" xmlns:xlink="http://www.w3.org/1999/xlink" width="120" zoomAndPan="magnify" viewBox="0 0 646.5 279.749983" height="" preserveAspectRatio="xMidYMid meet" version="1.0"><defs><g/><clipPath id="fb53fbaf62"><path d="M 0.0390625 0 L 645.960938 0 L 645.960938 279.5 L 0.0390625 279.5 Z M 0.0390625 0 " clip-rule="nonzero"/></clipPath><clipPath id="2f6c8dd585"><path d="M 314.132812 2.832031 L 332.226562 2.832031 L 332.226562 279.5 L 314.132812 279.5 Z M 314.132812 2.832031 " clip-rule="nonzero"/></clipPath><clipPath id="90968bdb14"><path d="M 323.179688 2.832031 L 332.226562 280.109375 L 314.132812 280.109375 Z M 323.179688 2.832031 " clip-rule="nonzero"/></clipPath><clipPath id="64078743b9"><path d="M 169.859375 146.664062 L 201.851562 146.664062 L 201.851562 178.652344 L 169.859375 178.652344 Z M 169.859375 146.664062 " clip-rule="nonzero"/></clipPath><clipPath id="89642080d8"><path d="M 185.855469 146.664062 C 177.023438 146.664062 169.859375 153.824219 169.859375 162.65625 C 169.859375 171.492188 177.023438 178.652344 185.855469 178.652344 C 194.691406 178.652344 201.851562 171.492188 201.851562 162.65625 C 201.851562 153.824219 194.691406 146.664062 185.855469 146.664062 Z M 185.855469 146.664062 " clip-rule="nonzero"/></clipPath><clipPath id="c7ce7a4276"><path d="M 204.824219 146.664062 L 236.816406 146.664062 L 236.816406 178.652344 L 204.824219 178.652344 Z M 204.824219 146.664062 " clip-rule="nonzero"/></clipPath><clipPath id="4be98ef53d"><path d="M 220.820312 146.664062 C 211.988281 146.664062 204.824219 153.824219 204.824219 162.65625 C 204.824219 171.492188 211.988281 178.652344 220.820312 178.652344 C 229.652344 178.652344 236.816406 171.492188 236.816406 162.65625 C 236.816406 153.824219 229.652344 146.664062 220.820312 146.664062 Z M 220.820312 146.664062 " clip-rule="nonzero"/></clipPath><clipPath id="5ff93a7e67"><path d="M 240.238281 146.664062 L 272.230469 146.664062 L 272.230469 178.652344 L 240.238281 178.652344 Z M 240.238281 146.664062 " clip-rule="nonzero"/></clipPath><clipPath id="aabf86a226"><path d="M 256.234375 146.664062 C 247.402344 146.664062 240.238281 153.824219 240.238281 162.65625 C 240.238281 171.492188 247.402344 178.652344 256.234375 178.652344 C 265.066406 178.652344 272.230469 171.492188 272.230469 162.65625 C 272.230469 153.824219 265.066406 146.664062 256.234375 146.664062 Z M 256.234375 146.664062 " clip-rule="nonzero"/></clipPath><clipPath id="ac3092502e"><path d="M 1 227 L 54 227 L 54 279.5 L 1 279.5 Z M 1 227 " clip-rule="nonzero"/></clipPath><clipPath id="6c22e4fa82"><path d="M 186 227 L 241 227 L 241 279.5 L 186 279.5 Z M 186 227 " clip-rule="nonzero"/></clipPath><clipPath id="885712ec8a"><path d="M 368.648438 233.371094 L 400.640625 233.371094 L 400.640625 265.363281 L 368.648438 265.363281 Z M 368.648438 233.371094 " clip-rule="nonzero"/></clipPath><clipPath id="91a809faa4"><path d="M 384.644531 233.371094 C 375.8125 233.371094 368.648438 240.53125 368.648438 249.367188 C 368.648438 258.199219 375.8125 265.363281 384.644531 265.363281 C 393.480469 265.363281 400.640625 258.199219 400.640625 249.367188 C 400.640625 240.53125 393.480469 233.371094 384.644531 233.371094 Z M 384.644531 233.371094 " clip-rule="nonzero"/></clipPath><clipPath id="6279d15937"><path d="M 403.613281 233.371094 L 435.605469 233.371094 L 435.605469 265.363281 L 403.613281 265.363281 Z M 403.613281 233.371094 " clip-rule="nonzero"/></clipPath><clipPath id="940b078f35"><path d="M 419.609375 233.371094 C 410.773438 233.371094 403.613281 240.53125 403.613281 249.367188 C 403.613281 258.199219 410.773438 265.363281 419.609375 265.363281 C 428.441406 265.363281 435.605469 258.199219 435.605469 249.367188 C 435.605469 240.53125 428.441406 233.371094 419.609375 233.371094 Z M 419.609375 233.371094 " clip-rule="nonzero"/></clipPath><clipPath id="9d1934be5d"><path d="M 439.027344 233.371094 L 471.019531 233.371094 L 471.019531 265.363281 L 439.027344 265.363281 Z M 439.027344 233.371094 " clip-rule="nonzero"/></clipPath><clipPath id="5982c918aa"><path d="M 455.023438 233.371094 C 446.1875 233.371094 439.027344 240.53125 439.027344 249.367188 C 439.027344 258.199219 446.1875 265.363281 455.023438 265.363281 C 463.855469 265.363281 471.019531 258.199219 471.019531 249.367188 C 471.019531 240.53125 463.855469 233.371094 455.023438 233.371094 Z M 455.023438 233.371094 " clip-rule="nonzero"/></clipPath></defs><g clip-path="url(#fb53fbaf62)"><path fill="transparent" d="M 0.0390625 0 L 645.960938 0 L 645.960938 279.5 L 0.0390625 279.5 Z M 0.0390625 0 " fill-opacity="1" fill-rule="nonzero"/><path fill="transparent" d="M 0.0390625 0 L 645.960938 0 L 645.960938 279.5 L 0.0390625 279.5 Z M 0.0390625 0 " fill-opacity="1" fill-rule="nonzero"/></g><g clip-path="url(#2f6c8dd585)"><g clip-path="url(#90968bdb14)"><path fill="#ffffff" d="M 314.132812 2.832031 L 332.226562 2.832031 L 332.226562 280.09375 L 314.132812 280.09375 Z M 314.132812 2.832031 " fill-opacity="1" fill-rule="nonzero"/></g></g><path stroke-linecap="butt" transform="matrix(0.991407, -0.000000000000000369, 0.000000000000000369, 0.991407, 36.618766, 201.297487)" fill="none" stroke-linejoin="miter" d="M -0.00159243 3.498197 L 578.086833 3.498197 " stroke="#ffffff" stroke-width="7" stroke-opacity="1" stroke-miterlimit="4"/><g clip-path="url(#64078743b9)"><g clip-path="url(#89642080d8)"><path fill="#ffffff" d="M 169.859375 146.664062 L 201.851562 146.664062 L 201.851562 178.652344 L 169.859375 178.652344 Z M 169.859375 146.664062 " fill-opacity="1" fill-rule="nonzero"/></g></g><g clip-path="url(#c7ce7a4276)"><g clip-path="url(#4be98ef53d)"><path fill="#ffffff" d="M 204.824219 146.664062 L 236.816406 146.664062 L 236.816406 178.652344 L 204.824219 178.652344 Z M 204.824219 146.664062 " fill-opacity="1" fill-rule="nonzero"/></g></g><g clip-path="url(#5ff93a7e67)"><g clip-path="url(#aabf86a226)"><path fill="#ffffff" d="M 240.238281 146.664062 L 272.230469 146.664062 L 272.230469 178.652344 L 240.238281 178.652344 Z M 240.238281 146.664062 " fill-opacity="1" fill-rule="nonzero"/></g></g><g clip-path="url(#ac3092502e)"><g fill="#ffffff" fill-opacity="1"><g transform="translate(-3.463546, 277.405009)"><g><path d="M 42.90625 -31.515625 C 41.664062 -36.660156 38.515625 -39.234375 33.453125 -39.234375 C 30.796875 -39.234375 28.296875 -38.363281 25.953125 -36.625 C 23.617188 -34.894531 21.765625 -32.601562 20.390625 -29.75 C 19.015625 -26.894531 18.328125 -23.988281 18.328125 -21.03125 C 18.328125 -17.34375 19.289062 -14.375 21.21875 -12.125 C 23.15625 -9.875 25.753906 -8.75 29.015625 -8.75 C 31.972656 -8.75 34.457031 -9.5 36.46875 -11 C 38.488281 -12.5 39.820312 -14.554688 40.46875 -17.171875 L 30.171875 -17.171875 L 31.78125 -27.078125 L 56.796875 -27.078125 C 55.679688 -20.304688 53.804688 -14.957031 51.171875 -11.03125 C 48.535156 -7.101562 45.191406 -4.015625 41.140625 -1.765625 C 37.085938 0.484375 32.46875 1.609375 27.28125 1.609375 C 20.582031 1.609375 15.207031 -0.273438 11.15625 -4.046875 C 7.101562 -7.828125 5.078125 -12.867188 5.078125 -19.171875 C 5.078125 -24.703125 6.382812 -29.847656 9 -34.609375 C 11.625 -39.367188 15.289062 -43.140625 20 -45.921875 C 24.71875 -48.710938 30.015625 -50.109375 35.890625 -50.109375 C 46.140625 -50.109375 52.722656 -45.582031 55.640625 -36.53125 Z M 42.90625 -31.515625 "/></g></g></g></g><g fill="#ffffff" fill-opacity="1"><g transform="translate(50.691731, 277.405009)"><g><path d="M 39.375 -48.5 L 37.703125 -37.828125 L 22.703125 -37.828125 L 21.421875 -29.71875 L 35.640625 -29.71875 L 33.96875 -19.046875 L 19.75 -19.046875 L 18.390625 -10.671875 L 33.390625 -10.671875 L 31.71875 0 L 4.109375 0 L 11.765625 -48.5 Z M 39.375 -48.5 "/></g></g></g><g fill="#ffffff" fill-opacity="1"><g transform="translate(86.066317, 277.405009)"><g><path d="M 28.4375 -49.796875 C 33.625 -49.796875 38.488281 -48.460938 43.03125 -45.796875 L 36.46875 -36.03125 C 34.195312 -38.164062 31.582031 -39.234375 28.625 -39.234375 C 27.082031 -39.234375 25.675781 -38.796875 24.40625 -37.921875 C 23.144531 -37.046875 22.515625 -35.960938 22.515625 -34.671875 C 22.515625 -33.722656 22.960938 -32.894531 23.859375 -32.1875 C 24.765625 -31.488281 26.414062 -30.796875 28.8125 -30.109375 C 32.070312 -29.117188 34.429688 -28.160156 35.890625 -27.234375 C 37.347656 -26.316406 38.484375 -25.179688 39.296875 -23.828125 C 40.117188 -22.484375 40.53125 -20.800781 40.53125 -18.78125 C 40.53125 -15.863281 39.78125 -12.773438 38.28125 -9.515625 C 36.78125 -6.253906 34.320312 -3.660156 30.90625 -1.734375 C 27.5 0.191406 23.457031 1.195312 18.78125 1.28125 C 12.78125 1.28125 7.378906 -0.5625 2.578125 -4.25 L 9.578125 -14.40625 C 12.929688 -11.0625 16.382812 -9.390625 19.9375 -9.390625 C 21.914062 -9.390625 23.578125 -9.90625 24.921875 -10.9375 C 26.273438 -11.96875 26.953125 -13.273438 26.953125 -14.859375 C 26.953125 -16.921875 24.894531 -18.507812 20.78125 -19.625 C 15.800781 -20.988281 12.582031 -22.453125 11.125 -24.015625 C 9.664062 -25.585938 8.9375 -27.679688 8.9375 -30.296875 C 8.9375 -35.785156 10.8125 -40.40625 14.5625 -44.15625 C 18.320312 -47.914062 22.945312 -49.796875 28.4375 -49.796875 Z M 28.4375 -49.796875 "/></g></g></g><g fill="#ffffff" fill-opacity="1"><g transform="translate(125.621541, 277.405009)"><g><path d="M 41.484375 -48.5 L 39.8125 -37.828125 L 29.390625 -37.828125 L 23.421875 0 L 10.8125 0 L 16.796875 -37.828125 L 6.375 -37.828125 L 8.046875 -48.5 Z M 41.484375 -48.5 "/></g></g></g><g fill="#ffffff" fill-opacity="1"><g transform="translate(159.902729, 277.405009)"><g><path d="M 24.375 -48.5 L 16.71875 0 L 4.109375 0 L 11.765625 -48.5 Z M 24.375 -48.5 "/></g></g></g><g clip-path="url(#6c22e4fa82)"><g fill="#ffffff" fill-opacity="1"><g transform="translate(180.741585, 277.405009)"><g><path d="M 59.625 -28.953125 C 59.625 -24.273438 58.273438 -19.425781 55.578125 -14.40625 C 52.878906 -9.394531 49.0625 -5.472656 44.125 -2.640625 C 39.195312 0.191406 33.898438 1.609375 28.234375 1.609375 C 21.421875 1.609375 15.890625 -0.394531 11.640625 -4.40625 C 7.398438 -8.414062 5.28125 -13.703125 5.28125 -20.265625 C 5.28125 -25.671875 6.703125 -30.65625 9.546875 -35.21875 C 12.398438 -39.789062 16.28125 -43.414062 21.1875 -46.09375 C 26.101562 -48.769531 31.175781 -50.109375 36.40625 -50.109375 C 40.570312 -50.109375 44.460938 -49.207031 48.078125 -47.40625 C 51.703125 -45.601562 54.53125 -43.101562 56.5625 -39.90625 C 58.601562 -36.71875 59.625 -33.066406 59.625 -28.953125 Z M 30.171875 -10.609375 C 33.085938 -10.609375 35.773438 -11.410156 38.234375 -13.015625 C 40.703125 -14.628906 42.664062 -16.710938 44.125 -19.265625 C 45.582031 -21.816406 46.3125 -24.335938 46.3125 -26.828125 C 46.3125 -29.910156 45.140625 -32.523438 42.796875 -34.671875 C 40.460938 -36.816406 37.671875 -37.890625 34.421875 -37.890625 C 31.890625 -37.890625 29.378906 -37.203125 26.890625 -35.828125 C 24.398438 -34.453125 22.394531 -32.609375 20.875 -30.296875 C 19.351562 -27.984375 18.59375 -25.410156 18.59375 -22.578125 C 18.59375 -19.109375 19.675781 -16.242188 21.84375 -13.984375 C 24.007812 -11.734375 26.785156 -10.609375 30.171875 -10.609375 Z M 30.171875 -10.609375 "/></g></g></g></g><g fill="#ffffff" fill-opacity="1"><g transform="translate(237.791149, 277.405009)"><g><path d="M 24.375 -48.5 L 42.78125 -18.84375 L 42.90625 -18.84375 L 47.609375 -48.5 L 60.21875 -48.5 L 52.5625 0 L 39.953125 0 L 21.546875 -29.71875 L 21.421875 -29.71875 L 16.71875 0 L 4.109375 0 L 11.765625 -48.5 Z M 24.375 -48.5 "/></g></g></g><g clip-path="url(#885712ec8a)"><g clip-path="url(#91a809faa4)"><path fill="#ffffff" d="M 368.648438 233.371094 L 400.640625 233.371094 L 400.640625 265.363281 L 368.648438 265.363281 Z M 368.648438 233.371094 " fill-opacity="1" fill-rule="nonzero"/></g></g><g clip-path="url(#6279d15937)"><g clip-path="url(#940b078f35)"><path fill="#ffffff" d="M 403.613281 233.371094 L 435.605469 233.371094 L 435.605469 265.363281 L 403.613281 265.363281 Z M 403.613281 233.371094 " fill-opacity="1" fill-rule="nonzero"/></g></g><g clip-path="url(#9d1934be5d)"><g clip-path="url(#5982c918aa)"><path fill="#ffffff" d="M 439.027344 233.371094 L 471.019531 233.371094 L 471.019531 265.363281 L 439.027344 265.363281 Z M 439.027344 233.371094 " fill-opacity="1" fill-rule="nonzero"/></g></g><g fill="#ffffff" fill-opacity="1"><g transform="translate(332.612953, 182.981705)"><g><path d="M 20.5 -48.78125 L 27.625 -19.140625 L 44.109375 -48.78125 L 57.890625 -48.78125 L 29.375 0 L 19.53125 0 L 6.734375 -48.78125 Z M 20.5 -48.78125 "/></g></g></g><g fill="#ffffff" fill-opacity="1"><g transform="translate(381.841464, 182.981705)"><g><path d="M 39.59375 -48.78125 L 37.90625 -38.03125 L 22.828125 -38.03125 L 21.546875 -29.890625 L 35.84375 -29.890625 L 34.15625 -19.140625 L 19.859375 -19.140625 L 18.5 -10.734375 L 33.578125 -10.734375 L 31.890625 0 L 4.140625 0 L 11.84375 -48.78125 Z M 39.59375 -48.78125 "/></g></g></g><g fill="#ffffff" fill-opacity="1"><g transform="translate(417.420545, 182.981705)"><g><path d="M 31.109375 -48.78125 C 35.515625 -48.78125 39.039062 -47.742188 41.6875 -45.671875 C 44.34375 -43.597656 45.671875 -40.625 45.671875 -36.75 C 45.671875 -32.601562 44.441406 -28.941406 41.984375 -25.765625 C 39.523438 -22.597656 36.375 -20.671875 32.53125 -19.984375 L 44.703125 0 L 28.921875 0 L 19.921875 -18.765625 L 19.796875 -18.765625 L 16.8125 0 L 4.140625 0 L 11.84375 -48.78125 Z M 21.09375 -26.90625 L 22.828125 -26.90625 C 25.804688 -26.90625 28.113281 -27.53125 29.75 -28.78125 C 31.394531 -30.03125 32.21875 -31.863281 32.21875 -34.28125 C 32.21875 -37.476562 29.585938 -39.078125 24.328125 -39.078125 L 23.03125 -39.078125 Z M 21.09375 -26.90625 "/></g></g></g><g fill="#ffffff" fill-opacity="1"><g transform="translate(461.409237, 182.981705)"><g><path d="M 41.71875 -48.78125 L 40.046875 -38.03125 L 29.5625 -38.03125 L 23.546875 0 L 10.875 0 L 16.890625 -38.03125 L 6.40625 -38.03125 L 8.078125 -48.78125 Z M 41.71875 -48.78125 "/></g></g></g><g fill="#ffffff" fill-opacity="1"><g transform="translate(495.888613, 182.981705)"><g><path d="M 24.515625 -48.78125 L 16.8125 0 L 4.140625 0 L 11.84375 -48.78125 Z M 24.515625 -48.78125 "/></g></g></g><g fill="#ffffff" fill-opacity="1"><g transform="translate(516.847931, 182.981705)"><g><path d="M 44.109375 -32.40625 C 43.117188 -34.132812 41.707031 -35.460938 39.875 -36.390625 C 38.039062 -37.316406 36.023438 -37.78125 33.828125 -37.78125 C 29.734375 -37.78125 26.15625 -36.203125 23.09375 -33.046875 C 20.03125 -29.898438 18.5 -26.171875 18.5 -21.859375 C 18.5 -18.628906 19.53125 -16.007812 21.59375 -14 C 23.664062 -12 26.410156 -11 29.828125 -11 C 31.890625 -11 33.96875 -11.460938 36.0625 -12.390625 C 38.15625 -13.316406 40 -14.578125 41.59375 -16.171875 L 39.140625 -0.96875 C 38.234375 -0.664062 36.644531 -0.210938 34.375 0.390625 C 32.113281 0.992188 29.863281 1.296875 27.625 1.296875 C 23.695312 1.296875 20.03125 0.445312 16.625 -1.25 C 13.21875 -2.957031 10.46875 -5.351562 8.375 -8.4375 C 6.28125 -11.519531 5.210938 -15.113281 5.171875 -19.21875 C 5.171875 -24.726562 6.53125 -29.820312 9.25 -34.5 C 11.96875 -39.1875 15.726562 -42.953125 20.53125 -45.796875 C 25.34375 -48.640625 30.296875 -50.0625 35.390625 -50.0625 C 39.003906 -50.0625 42.734375 -49.242188 46.578125 -47.609375 Z M 44.109375 -32.40625 "/></g></g></g><g fill="#ffffff" fill-opacity="1"><g transform="translate(559.542829, 182.981705)"><g><path d="M 40.046875 -48.78125 L 50.71875 0 L 37.1875 0 L 35.390625 -8.46875 L 17.921875 -8.46875 L 13.203125 0 L -0.265625 0 L 26.203125 -48.78125 Z M 22.96875 -18.171875 L 33.515625 -18.171875 L 30.796875 -33.703125 L 30.65625 -33.703125 Z M 22.96875 -18.171875 "/></g></g></g><g fill="#ffffff" fill-opacity="1"><g transform="translate(610.065134, 182.981705)"><g><path d="M 24.515625 -48.78125 L 18.5 -10.734375 L 33.703125 -10.734375 L 32.015625 0 L 4.140625 0 L 11.84375 -48.78125 Z M 24.515625 -48.78125 "/></g></g></g></svg>